<?xml version="1.0" encoding="UTF-8"?>
<svg id="Layer_1" data-name="Layer 1" xmlns="http://www.w3.org/2000/svg" xmlns:xlink="http://www.w3.org/1999/xlink" viewBox="0 0 1039.47 623.68">
  <defs>
    <style>
      .cls-1 { fill: #8d69ff; }
      .cls-2 { fill: #fff; }
      .cls-3 { fill: url(#purple); }
      .cls-4 { fill: #221348; }
      .cls-5 { fill: none; stroke: #221348; stroke-linecap: round; stroke-miterlimit: 10; stroke-width: 3.83px; }
      .cls-6 { fill: #221348; }
    </style>
    <linearGradient id="purple" x1="521.34" y1="375.31" x2="521.34" y2="150.69" gradientUnits="userSpaceOnUse">
      <stop offset="0" stop-color="#8d69ff"/>
      <stop offset=".11" stop-color="#8764f5"/>
      <stop offset=".29" stop-color="#7959dd"/>
      <stop offset=".51" stop-color="#6146b5"/>
      <stop offset=".77" stop-color="#412c7e"/>
      <stop offset="1" stop-color="#221348"/>
    </linearGradient>
  </defs>
  <g id="main-no-bg">
    <g id="_1" data-name="1">
      <g id="name">
        <g>
          <g>
            <path class="cls-2" d="M97.43,200.25c-4.63,3.81-6.94,8.84-6.94,15.12s2.82,11.26,8.48,14.96c5.65,3.7,18.71,8.07,39.18,13.11,20.46,5.04,36.35,12.6,47.66,22.67,11.31,10.08,16.97,24.78,16.97,44.11s-7.25,35.01-21.75,47.04c-14.5,12.03-33.58,18.05-57.22,18.05-29.87,0-57.15-9.68-81.82-29.05-5.9-4.63-6.84-13.28-2.09-19.09l11.87-14.55c4.53-5.55,12.92-6.47,18.61-2.12,19.39,14.83,37.52,22.24,54.37,22.24,8.84,0,15.78-1.9,20.82-5.71,5.04-3.8,7.56-8.95,7.56-15.42s-2.68-11.62-8.02-15.42c-5.35-3.8-15.94-7.66-31.77-11.57-25.09-5.96-43.45-13.73-55.06-23.29-11.62-9.56-17.43-24.57-17.43-45.04s7.35-36.25,22.06-47.35c14.7-11.1,33.06-16.66,55.06-16.66,14.39,0,28.79,2.47,43.19,7.4,9.73,3.34,18.62,7.61,26.66,12.83,6.29,4.08,7.83,12.67,3.56,18.84l-9.38,13.53c-3.98,5.74-12.12,7.39-18.09,3.76-15.42-9.4-31.25-14.1-47.49-14.1-8.02,0-14.34,1.9-18.97,5.71Z"/>
            <g>
              <path class="cls-2" d="M266.33,226.41c-.67,2.06.81,4.19,2.98,4.19,32.72.02,65.44.04,98.16.06-30.31-.7-39.01-5.09-40.03-9.71-2.01-9.05,21.34-27.81,49.12-26.66,33.8,1.4,49.04,27.36,53.11,34.76.55,1.01,1.6,1.61,2.75,1.61h45.9c2.11,0,3.68-2.06,3.02-4.07-12.86-39.53-52.88-72.78-104.67-74.31-53.38-1.57-96.84,32.6-110.33,74.13Z"/>
              <path class="cls-2" d="M397.78,215.5l3.06,10.49c.22.77.83,1.37,1.6,1.6l10.49,3.06-10.49,3.06c-.77.22-1.37.83-1.6,1.6l-3.06,10.49-3.06-10.49c-.22-.77-.83-1.37-1.6-1.6l-10.49-3.06,10.49-3.06c.77-.22,1.37-.83,1.6-1.6l3.06-10.49Z"/>
              <path class="cls-2" d="M534.83,263.94c-.58-3.8-3.34-6.71-5.99-9.3-.45-.44-.9-.86-1.39-1.26-1.5-1.22-3.15-2.27-4.88-3.12-3.28-1.62-6.89-2.59-10.54-2.88-6.1-.49-12.41.93-17.48,4.43-.43.3-.85.61-1.26.94,6.43-3.03,13.94-3.69,20.8-1.82,2.04.56,4.04,1.41,5.74,2.67,2.61,1.94,4.3,5.28,3.49,8.53s-3.59,5.87-6.41,7.57c-.92.56-1.89,1.04-2.9,1.44-13.76,5.5-29.41,1.63-43.24-3.72-13.82-5.35-27.54-12.23-42.35-12.72-7.9-.26-15.82,1.35-23.16,4.31-3.59,1.45-7.12,3.25-10.95,3.8-7.53,1.09-14.77-2.71-21.87-5.46-21.92-8.47-46.39-7.29-69.57-3.39-18.68,3.14-38,7.93-56.24,2.83-3.2-.89-6.43-2.16-8.73-4.55s-3.44-6.17-1.96-9.14c1.12-2.25,3.46-3.63,5.79-4.59,7.72-3.2,16.71-3.18,24.41.05-9.84-6.16-22.96-6.68-33.26-1.31-4.9,2.55-9.36,6.68-10.54,12.08-1.85,8.42,4.96,16.57,12.76,20.23,7.8,3.66,16.65,4.33,24.85,6.99,5.38,34.76,27.47,66.54,58.17,83.7,30.7,17.16,69.35,19.32,101.77,5.68,32.42-13.63,57.91-42.76,67.13-76.71,12.42,1.9,25.48-.68,36.23-7.16,4.39-2.65,8.54-6.11,10.58-10.81.99-2.29,1.36-4.86.99-7.32ZM362.86,331.53c-24.8-4.46-43.53-22.83-51.51-49.24,12.35,4.51,27.51,8.85,45.09,11.43,31.42,4.6,58.2,1.77,76.91-1.86-12.23,28.35-40,45.15-70.49,39.66Z"/>
            </g>
            <path class="cls-2" d="M552.57,359.66v-189.25c0-7.28,5.91-13.19,13.19-13.19h21.74c7.28,0,13.19,5.91,13.19,13.19v146.37c0,7.28,5.91,13.19,13.19,13.19h65.55c7.28,0,13.19,5.91,13.19,13.19v16.5c0,7.28-5.91,13.19-13.19,13.19h-113.67c-7.28,0-13.19-5.91-13.19-13.19Z"/>
            <g>
              <path class="cls-2" d="M740.26,226.95h21.98c7.22,0,13.07,3.96,13.07,8.84v128.2c0,4.88-5.85,8.84-13.07,8.84h-21.98c-7.22,0-13.07-3.96-13.07-8.84v-128.2c0-4.88,5.85-8.84,13.07-8.84Z"/>
              <path class="cls-2" d="M751.25,157.22l5.46,18.76c.4,1.38,1.48,2.45,2.86,2.86l18.76,5.46-18.76,5.46c-1.38.4-2.45,1.48-2.86,2.86l-5.46,18.76-5.46-18.76c-.4-1.38-1.48-2.45-2.86-2.86l-18.76-5.46,18.76-5.46c1.38-.4,2.46-1.48,2.86-2.86l5.46-18.76Z"/>
            </g>
            <path class="cls-2" d="M952.34,158.42h40.73c5.74,0,9.2,6.36,6.08,11.18l-57.47,88.83c-1.55,2.4-1.55,5.49.01,7.89l62.93,96.53c3.14,4.82-.32,11.2-6.07,11.2h-41.31c-2.46,0-4.74-1.24-6.08-3.3l-37.72-58.23c-2.86-4.41-9.32-4.4-12.17.02l-37.45,58.19c-1.33,2.07-3.63,3.32-6.09,3.32h-40.62c-5.76,0-9.22-6.4-6.05-11.22l62.55-95.29c1.57-2.39,1.58-5.48.04-7.89l-57.85-90.08c-3.1-4.82.37-11.16,6.09-11.16h40.47c2.47,0,4.76,1.25,6.09,3.33l32.8,51.04c2.85,4.44,9.34,4.44,12.19,0l32.8-51.04c1.33-2.07,3.63-3.33,6.09-3.33Z"/>
          </g>
        </g>
      </g>
    </g>
  </g>
</svg>
